<?xml version="1.0" standalone="no"?>
<!DOCTYPE svg PUBLIC "-//W3C//DTD SVG 20010904//EN"
 "http://www.w3.org/TR/2001/REC-SVG-20010904/DTD/svg10.dtd">
<svg version="1.0" xmlns="http://www.w3.org/2000/svg"
 width="644.000000pt" height="644.000000pt" viewBox="0 0 644.000000 644.000000"
 preserveAspectRatio="xMidYMid meet">
<metadata>
Created by potrace 1.14, written by Peter Selinger 2001-2017
</metadata>
<g transform="translate(0.000000,644.000000) scale(0.100000,-0.100000)"
fill="#000000" stroke="none">
<path d="M4081 6268 c3 -64 6 -68 60 -68 l49 0 0 50 0 50 -55 0 -55 0 1 -32z"/>
<path d="M1940 6080 l0 -30 95 0 95 0 0 30 0 30 -95 0 -95 0 0 -30z"/>
<path d="M3140 6073 c-14 -3 -33 -12 -43 -21 -11 -10 -52 -22 -95 -28 -64 -9
-81 -9 -100 4 -45 29 -167 0 -187 -45 -6 -15 -35 -32 -95 -54 -47 -18 -86 -33
-88 -34 -2 -2 67 -151 126 -272 11 -24 17 -43 12 -43 -4 0 -13 12 -18 28 -5
15 -40 89 -76 165 -36 76 -61 135 -54 131 7 -4 8 -3 4 4 -18 30 -115 -5 -159
-58 -16 -18 -26 -39 -23 -46 3 -8 -12 -26 -37 -43 -24 -16 -62 -45 -85 -64
l-42 -35 37 -32 38 -31 3 31 c3 26 7 30 33 30 26 0 29 -3 29 -30 0 -27 -3 -30
-32 -30 l-33 0 55 -48 c65 -55 134 -122 105 -100 -50 37 -250 212 -248 218 1
3 -9 7 -22 8 -43 3 -131 -123 -110 -158 4 -6 -4 -25 -17 -43 -69 -90 -158
-281 -158 -336 0 -16 4 -40 9 -53 5 -13 4 -51 -2 -90 l-10 -68 -124 0 -123 0
0 -45 0 -45 120 0 120 0 0 -36 c0 -45 24 -42 28 4 4 40 22 32 22 -9 0 -28 1
-29 50 -29 l50 0 0 35 0 35 69 0 c72 0 81 -6 81 -51 0 -18 10 -19 257 -19 141
0 254 -2 252 -4 -2 -3 -116 -7 -254 -9 -174 -3 -250 -8 -253 -16 -2 -6 -14
-11 -27 -11 -13 0 -48 -13 -79 -30 l-56 -29 2 42 3 42 -50 0 c-33 0 -50 -4
-51 -12 -1 -7 -2 -26 -3 -43 -2 -49 -21 -34 -21 16 0 59 -24 55 -28 -4 l-3
-42 -622 -3 -622 -2 623 -3 622 -2 0 -110 0 -110 -40 -16 -40 -16 6 -72 c6
-70 6 -72 -21 -86 -47 -25 -77 -117 -56 -172 l11 -28 181 0 c100 0 180 -2 177
-6 -3 -3 -83 -5 -177 -5 -162 -1 -171 -2 -166 -19 5 -16 -1 -19 -37 -23 -40
-3 -39 -4 12 -5 30 -1 62 -7 70 -12 10 -6 19 -37 25 -87 l10 -77 43 -9 c34 -7
42 -12 37 -24 -3 -9 -10 -50 -16 -91 -38 -273 128 -440 503 -507 l97 -17 45
-58 c52 -66 65 -111 20 -69 l-27 24 6 -33 c17 -90 30 -301 21 -352 -8 -50 -13
-57 -49 -77 -68 -38 -80 -42 -83 -27 -2 8 -5 14 -7 14 -1 0 -47 -18 -101 -39
-148 -59 -264 -94 -539 -165 -346 -89 -480 -144 -618 -255 l-75 -61 -388 -2
-389 -3 -3 -117 -3 -118 306 -2 306 -3 -41 -84 c-40 -82 -45 -119 -15 -107 8
3 15 1 15 -4 0 -6 65 -10 165 -10 140 0 165 -2 165 -15 0 -12 -16 -15 -85 -15
-79 0 -86 -2 -118 -30 -41 -36 -87 -41 -87 -10 0 21 4 21 -120 21 -122 1 -110
11 -110 -91 0 -86 1 -90 23 -91 12 -1 25 -1 30 0 4 0 7 -6 7 -14 0 -13 76 -15
625 -15 410 0 625 -3 625 -10 0 -7 -217 -10 -630 -10 l-629 0 -11 -42 c-6 -24
-15 -56 -20 -72 -6 -16 -10 -40 -10 -52 0 -23 4 -24 63 -24 34 0 92 -3 130 -7
l67 -6 0 -48 0 -48 -63 -4 c-46 -2 -56 -5 -39 -11 16 -6 22 -16 22 -37 0 -24
13 -39 76 -89 41 -33 80 -57 85 -54 6 3 19 -2 30 -12 11 -10 19 -12 19 -6 0 8
21 12 58 12 l57 0 -29 -25 c-19 -16 -27 -31 -23 -44 6 -26 -9 -31 -89 -31
l-64 0 0 -30 0 -30 70 0 c56 0 70 -3 70 -15 0 -11 13 -15 54 -15 53 0 55 1 58
28 l3 29 73 -33 72 -33 0 -51 c0 -47 2 -50 25 -50 14 0 25 -3 25 -7 0 -5 21
-8 47 -8 47 0 48 1 53 35 l5 35 68 3 68 3 -1 47 c-1 26 -1 59 -1 75 l1 27 215
0 c184 0 215 -2 215 -15 0 -10 10 -15 29 -15 16 0 43 -3 60 -6 l31 -6 0 56 0
56 105 0 c63 0 105 -4 105 -10 0 -5 -11 -10 -25 -10 -25 0 -25 -1 -25 -84 l0
-83 38 -7 c20 -3 65 -6 100 -6 l62 0 0 50 0 50 55 0 c52 0 73 -14 40 -26 -8
-4 -15 -10 -15 -15 0 -4 7 -6 15 -3 10 4 15 0 15 -11 0 -12 5 -15 16 -11 9 3
27 9 40 12 24 6 24 8 24 130 0 92 3 124 13 125 6 0 53 1 102 2 l90 2 3 82 3
83 35 0 c24 0 37 -5 41 -17 14 -36 31 -42 129 -45 59 -2 98 -7 97 -13 -1 -5
-11 -11 -23 -13 -15 -3 -20 -11 -20 -33 0 -24 4 -29 25 -29 14 0 25 -3 25 -7
0 -5 17 -9 38 -9 20 -1 46 -3 57 -5 11 -1 107 32 213 75 l192 79 0 53 0 54 49
0 50 0 3 51 3 50 150 0 150 0 3 -25 c4 -31 0 -31 87 -2 l70 23 5 54 5 54 48 3
c35 2 49 -1 53 -12 13 -33 24 -14 24 39 l0 55 -50 0 -50 0 0 50 0 50 50 0 c38
0 50 -4 50 -15 0 -8 -7 -15 -15 -15 -22 0 -19 -47 4 -60 40 -21 51 -13 51 35
0 43 1 45 30 45 30 0 30 1 30 55 l0 55 105 0 c63 0 105 -4 105 -10 0 -5 -11
-10 -25 -10 -22 0 -25 -4 -25 -35 0 -34 -1 -35 -40 -35 l-40 0 0 -49 c0 -48 0
-49 38 -58 31 -7 38 -13 40 -37 3 -24 7 -27 28 -22 16 4 24 2 24 -7 0 -11 12
-12 59 -4 49 8 61 13 64 31 2 11 5 -9 6 -46 l1 -68 360 0 360 0 0 35 c0 34 1
35 28 29 15 -4 37 -11 50 -15 58 -22 55 -11 -66 224 -65 127 -145 278 -176
333 -53 96 -59 102 -94 108 -63 10 -79 7 -85 -14 -4 -17 -14 -20 -66 -20 -52
0 -61 3 -61 18 0 14 -7 17 -45 14 l-45 -4 0 51 0 50 103 3 102 3 -45 22 -45
21 343 1 342 1 0 115 0 115 -458 0 -459 0 -1 88 c0 59 -7 109 -21 154 -36 114
-154 267 -245 320 -90 52 -158 82 -250 113 l-103 35 -48 -24 -48 -23 88 -22
c92 -23 245 -79 245 -90 0 -3 -48 -6 -107 -6 l-108 0 -3 -182 -2 -183 190 0
190 0 0 133 1 132 35 -40 c19 -22 53 -77 76 -123 40 -80 42 -87 42 -180 l1
-97 -198 -3 c-191 -2 -199 -2 -215 18 -18 22 -134 60 -182 60 -32 0 -126 35
-163 62 l-29 21 17 -33 c9 -17 15 -33 13 -35 -2 -2 -30 28 -63 66 -56 64 -63
68 -102 69 -38 0 -43 -3 -44 -22 l0 -23 -11 22 c-11 22 -16 23 -145 23 l-133
0 0 55 0 55 135 0 135 0 0 89 c0 49 3 104 7 122 l6 34 -26 -18 c-33 -21 -33
-18 -5 28 17 30 18 39 8 45 -8 5 22 6 66 3 261 -17 473 128 561 384 22 66 27
96 27 193 1 63 -3 132 -7 153 l-8 37 -87 0 -88 0 6 43 5 42 3 -38 c3 -35 6
-38 25 -32 64 20 181 45 186 40 8 -9 -21 -25 -49 -26 -14 0 -36 -5 -50 -9 -17
-6 0 -8 50 -7 l75 2 10 65 c8 55 16 70 47 101 75 73 70 208 -10 250 -23 13
-24 18 -20 86 l3 73 -36 14 -37 15 -4 70 -3 71 230 2 230 3 0 50 0 50 -232 3
-233 2 0 23 c0 22 2 22 137 22 l138 0 3 113 3 112 -150 0 -149 0 -7 38 c-5 20
-9 82 -10 137 -2 97 -4 104 -44 185 -24 46 -56 104 -73 128 -22 31 -31 58 -33
89 -2 50 -44 118 -88 143 -22 12 -30 13 -48 2 -18 -12 -24 -9 -57 20 -20 18
-56 47 -79 63 -28 20 -41 35 -38 46 8 25 -34 69 -89 95 -59 28 -70 29 -89 10
-12 -12 -26 -10 -100 17 -63 23 -87 37 -87 49 0 24 -35 45 -97 58 -44 10 -58
9 -85 -5 -43 -21 -190 -11 -228 16 -27 19 -98 30 -140 22z m141 -128 c-13 -93
-13 -98 -2 -90 19 11 19 -12 0 -43 -22 -38 -25 -66 -6 -59 8 3 39 8 71 12 l57
7 -21 -34 c-20 -35 -70 -87 -70 -74 0 4 7 18 16 31 16 25 16 25 -12 25 -16 -1
-49 -5 -74 -10 -25 -4 -47 -7 -48 -5 -2 2 8 23 22 48 14 24 23 47 19 50 -3 4
1 15 9 24 13 14 38 146 38 196 0 6 3 8 6 5 3 -3 1 -41 -5 -83z m362 59 c15 -8
27 -23 27 -32 0 -20 -77 -245 -104 -302 l-16 -35 6 35 5 35 -25 -40 c-13 -22
-23 -41 -22 -43 2 -1 59 7 126 20 120 22 123 23 136 54 11 26 17 31 39 27 20
-4 25 -11 25 -34 0 -22 -5 -29 -20 -29 -11 0 -31 -18 -50 -45 l-31 -45 40 0
c38 0 43 4 140 116 56 63 101 121 101 128 0 14 -44 57 -75 74 -11 6 -15 12
-10 12 19 0 74 -39 91 -65 18 -28 22 -23 -118 -184 -50 -57 -64 -79 -60 -97 3
-16 11 -24 26 -24 19 -1 17 -4 -13 -30 -32 -27 -63 -31 -58 -7 1 8 -20 14 -56
17 l-57 5 35 53 c21 30 30 52 23 52 -7 0 -73 -12 -146 -26 -73 -15 -136 -24
-139 -20 -3 3 17 40 45 83 28 42 49 79 47 81 -2 2 -37 -15 -77 -37 -41 -23
-84 -41 -96 -41 -32 0 -28 31 8 65 28 27 30 28 30 7 0 -11 4 -23 8 -26 5 -3
45 13 88 35 l80 39 28 83 c15 45 30 87 32 94 7 16 -28 45 -74 60 l-37 12 35
-6 c19 -3 47 -12 63 -19z m-719 -136 c4 -73 10 -144 13 -158 3 -14 2 -21 -3
-17 -10 10 -33 317 -23 311 4 -2 10 -63 13 -136z m222 -121 c-14 -19 -26 -37
-26 -41 0 -4 -9 -19 -20 -33 -13 -17 -20 -21 -20 -11 0 9 7 21 15 28 8 7 15
23 15 37 0 13 12 45 28 71 l27 47 3 -32 c2 -23 -4 -43 -22 -66z m1184 -157
c25 -61 17 -69 -150 -147 -85 -39 -166 -72 -178 -72 -13 -1 -31 9 -41 20 -15
18 -27 21 -89 20 -77 -1 -88 7 -49 40 17 14 39 18 94 19 62 0 74 -3 86 -21 9
-13 30 -23 54 -26 31 -4 58 5 156 51 71 34 117 61 117 70 0 25 -20 70 -43 96
l-22 25 27 -23 c14 -13 32 -37 38 -52z m-759 -138 c-19 -38 -48 -69 -55 -61
-5 4 63 99 70 99 2 0 -4 -17 -15 -38z m-691 -84 c-18 -34 -61 -78 -93 -95 -42
-21 -44 -9 -3 17 20 12 50 41 68 66 33 46 48 53 28 12z m1230 -25 c0 -5 -8
-18 -18 -31 -16 -20 -25 -23 -77 -20 l-60 3 30 17 c25 14 26 17 10 18 -17 0
-17 2 -5 10 18 11 120 14 120 3z m-322 -10 c-27 -56 -34 -64 -71 -74 -55 -15
-56 -5 -2 21 25 12 50 31 56 41 9 18 25 28 17 12z m344 -89 c-35 -20 -76 -39
-91 -44 l-29 -8 17 29 c13 23 28 32 76 43 91 22 95 19 27 -20z m-189 9 c-7 -2
-19 -2 -25 0 -7 3 -2 5 12 5 14 0 19 -2 13 -5z m-8 -21 c-11 -4 -252 -5 -535
-2 l-515 6 535 1 c294 1 526 -1 515 -5z m255 -46 c0 -2 -21 -16 -47 -31 -31
-17 -59 -25 -82 -23 l-34 3 39 27 c26 17 53 26 82 27 23 1 42 -1 42 -3z
m-2110 -92 l0 -45 -37 3 c-37 3 -38 4 -41 46 l-3 42 40 0 41 0 0 -46z m1821 6
c82 -33 134 -78 150 -130 6 -19 13 -111 16 -203 6 -169 6 -169 -16 -165 -17 2
-28 21 -55 98 -18 52 -49 132 -69 178 -25 55 -37 98 -37 127 0 41 -2 45 -24
45 -17 0 -31 10 -45 34 -12 18 -21 36 -21 40 0 12 29 5 101 -24z m132 3 c-7
-2 -21 -2 -30 0 -10 3 -4 5 12 5 17 0 24 -2 18 -5z m223 -52 c14 -11 42 -22
64 -26 36 -6 40 -10 40 -36 0 -27 -3 -29 -42 -30 -24 -1 -46 -1 -50 0 -11 1
-10 -1 7 -43 16 -37 7 -48 -15 -21 -20 24 -22 12 -5 -28 8 -20 15 -59 15 -86
l0 -49 -41 -4 -41 -4 5 56 c3 40 -1 69 -14 105 -24 63 -24 63 7 34 l26 -24 -7
25 c-4 14 -14 39 -22 55 -11 22 -12 26 -2 18 21 -21 26 -16 33 32 4 25 10 45
13 45 2 0 16 -9 29 -19z m217 -53 c3 -21 2 -38 -4 -38 -5 0 -9 12 -9 28 0 15
-3 38 -6 52 -4 18 -3 21 4 10 5 -8 12 -32 15 -52z m-2293 37 c0 -8 -2 -15 -4
-15 -2 0 -6 7 -10 15 -3 8 -1 15 4 15 6 0 10 -7 10 -15z m-18 -56 c4 -46 0
-53 -19 -38 -9 9 -13 8 -13 0 0 -7 -24 -11 -65 -11 -57 0 -65 2 -65 19 0 14
10 20 43 25 23 4 56 15 72 26 41 26 42 25 47 -21z m-265 -31 c-2 -13 -4 -5 -4
17 -1 22 1 32 4 23 2 -10 2 -28 0 -40z m663 -48 c0 -73 -2 -80 -20 -80 -18 0
-20 7 -20 73 0 76 4 87 27 87 10 0 13 -20 13 -80z m85 0 c0 -65 -2 -75 -17
-75 -10 0 -18 3 -18 8 0 4 0 39 0 78 0 62 2 70 18 67 14 -3 17 -15 17 -78z
m83 -3 c3 -72 1 -77 -18 -77 -18 0 -20 6 -20 81 0 71 2 80 18 77 14 -3 17 -16
20 -81z m1628 -167 c29 0 34 -3 34 -24 l0 -23 -47 23 c-49 25 -71 42 -40 31
10 -4 34 -7 53 -7z m154 -21 c0 -10 -4 -19 -10 -19 -5 0 -10 12 -10 26 0 14 4
23 10 19 6 -3 10 -15 10 -26z m-560 -9 c0 -7 -176 -10 -525 -10 -331 0 -525 4
-525 10 0 6 194 10 525 10 349 0 525 -3 525 -10z m-1739 -41 c42 -55 50 -96
65 -354 15 -256 27 -682 18 -633 -4 20 -13 30 -32 34 -45 10 -48 12 -15 13 17
1 35 6 38 11 4 6 4 48 0 94 -7 83 -8 84 -39 94 l-31 10 33 1 34 1 -7 142 c-9
170 -14 190 -46 199 -24 7 -24 7 -1 8 30 1 34 16 25 92 -8 61 -9 64 -38 69
-27 6 -28 7 -8 13 11 4 24 15 27 23 11 28 -15 143 -40 179 -29 43 -16 46 17 4z
m2119 0 c43 -26 50 -36 50 -71 0 -21 -5 -28 -18 -28 -18 0 -123 33 -142 45
-14 9 9 51 34 63 30 15 37 14 76 -9z m-2440 -98 c0 -55 -4 -102 -9 -105 -10
-6 -22 138 -14 177 12 58 23 22 23 -72z m2630 -42 c0 -37 -4 -58 -10 -54 -5 3
-10 31 -10 61 0 30 5 54 10 54 6 0 10 -27 10 -61z m-1618 -79 c76 -29 126 -66
159 -117 87 -138 -22 -295 -232 -333 -166 -31 -333 31 -401 148 -35 59 -35
103 -2 171 67 133 300 198 476 131z m1498 -177 c-6 -104 -16 -204 -20 -223
-12 -53 -11 -13 5 205 8 110 15 204 15 209 0 5 3 6 6 3 4 -4 1 -91 -6 -194z
m-517 154 c31 -14 98 -56 147 -93 79 -59 90 -71 90 -98 l0 -30 -28 27 c-34 33
-41 34 -35 4 14 -74 -52 -169 -153 -218 -56 -28 -78 -33 -163 -37 -82 -4 -111
-1 -167 17 -129 40 -207 124 -207 221 -1 77 53 149 145 196 70 36 112 44 219
40 77 -2 106 -8 152 -29z m667 -20 c31 -15 46 -29 48 -44 4 -29 -12 -29 -100
-1 -63 20 -68 24 -68 50 0 28 1 29 38 23 20 -4 57 -17 82 -28z m-1270 -177
c24 -15 6 -20 -28 -8 -26 10 -37 10 -52 0 -27 -16 -35 -15 -20 3 14 17 77 20
100 5z m1396 -15 c26 -40 23 -94 -9 -140 l-27 -40 0 103 c0 106 7 121 36 77z
m-2616 -65 c0 -27 -3 -30 -30 -30 -27 0 -30 3 -30 30 0 27 3 30 30 30 27 0 30
-3 30 -30z m1334 -109 c9 -7 16 -18 16 -24 0 -18 -51 36 -71 75 -30 59 -22 68
10 13 16 -28 36 -57 45 -64z m-1465 -206 c84 -15 99 -20 88 -31 -7 -7 -158 26
-171 38 -13 10 -16 11 83 -7z m78 -51 c18 -5 24 -18 34 -76 14 -76 40 -125 79
-146 25 -13 115 -12 156 2 18 6 23 2 33 -25 6 -17 11 -34 11 -35 0 -2 -61 -4
-135 -4 l-135 0 0 -55 c0 -30 3 -54 8 -54 4 1 73 1 155 0 123 -1 147 -3 147
-16 0 -13 25 -15 161 -15 104 0 158 -3 154 -10 -4 -6 -67 -10 -156 -10 l-149
0 15 -36 c8 -20 15 -40 15 -44 0 -10 -77 5 -165 31 -143 43 -241 113 -287 207
-19 39 -23 63 -23 142 0 147 9 163 82 144z m2417 -41 c48 -296 -127 -551 -391
-569 -60 -4 -83 -2 -83 6 0 7 29 90 65 185 36 96 65 182 65 192 1 17 1 17 14
0 12 -15 24 -16 87 -11 43 4 88 14 107 25 l32 18 0 -29 c0 -29 2 -30 45 -30
l45 0 0 45 c0 45 0 45 -35 45 -39 0 -39 0 -26 50 5 19 12 52 16 73 5 30 10 37
29 37 19 0 24 -7 30 -37z m-1261 -127 c38 -23 47 -24 82 -15 41 12 114 47 152
75 14 10 23 12 28 5 10 -17 -194 -113 -225 -106 -27 7 -130 72 -142 89 -21 30
-4 35 27 8 19 -17 54 -42 78 -56z m-901 -9 c-18 -18 -34 -22 -77 -21 -37 0
-61 5 -72 16 -15 16 -12 16 38 11 36 -3 66 0 89 9 44 19 50 14 22 -15z m1894
17 c27 -11 55 -15 93 -11 50 5 53 5 38 -11 -11 -11 -35 -16 -72 -16 -47 -1
-58 3 -82 27 -32 31 -29 33 23 11z m-176 -49 c0 -2 -14 -28 -31 -57 -17 -28
-54 -99 -83 -157 l-53 -106 18 -41 c15 -33 16 -48 8 -79 -20 -73 -95 -118
-166 -101 -40 11 -89 65 -97 109 -9 49 16 103 64 135 29 20 44 23 86 19 l51
-5 17 72 c18 79 55 164 78 183 8 7 32 17 54 22 49 11 54 12 54 6z m-756 -393
c127 -5 133 -4 184 22 62 32 67 22 11 -23 l-40 -33 -147 1 -146 2 -53 40 c-29
22 -53 42 -53 44 0 2 25 -8 56 -22 49 -22 74 -26 188 -31z m-463 -326 c10 -17
7 -16 -21 4 -36 25 -110 116 -110 133 1 13 113 -105 131 -137z m489 -144 c148
-4 153 -5 125 -20 -65 -35 -299 -14 -313 28 -4 10 0 11 14 5 11 -5 89 -10 174
-13z m-800 -237 l-15 -65 -3 51 c-4 59 2 79 21 79 11 0 10 -12 -3 -65z m-509
-112 c-5 -10 -51 -58 -101 -108 l-92 -90 56 78 c30 42 58 86 61 97 4 11 18 23
33 26 15 3 32 7 37 9 6 2 11 4 13 4 1 1 -2 -7 -7 -16z m-126 -32 c-25 -24
-125 -83 -125 -73 1 4 12 21 25 37 21 25 56 42 115 54 2 1 -4 -8 -15 -18z
m1965 -131 c-38 -29 -177 -96 -250 -119 -159 -52 -374 -51 -584 4 -100 26
-224 78 -261 110 l-20 17 20 -7 c244 -79 364 -99 595 -99 220 -1 314 15 435
74 92 44 99 47 65 20z m-2260 -63 l0 -53 -42 2 c-24 2 -46 3 -50 3 -5 1 -8 24
-8 51 l0 50 50 0 50 0 0 -53z m2700 -17 l0 -50 -50 0 -50 0 0 50 0 50 50 0 50
0 0 -50z m690 -5 l0 -55 -50 0 -50 0 0 55 0 55 50 0 50 0 0 -55z m-2607 -36
c-1 -24 -2 -47 -2 -51 -1 -5 -23 -8 -51 -8 l-50 0 0 49 c0 47 2 50 28 53 71 8
77 5 75 -43z m1275 -116 c-434 -2 -1142 -2 -1575 0 -434 1 -79 2 787 2 866 0
1221 -1 788 -2z m-1558 -83 c0 -5 -22 -10 -50 -10 -27 0 -50 5 -50 10 0 6 23
10 50 10 28 0 50 -4 50 -10z m0 -55 l0 -35 -50 0 -50 0 0 35 0 35 50 0 50 0 0
-35z m2300 -50 l0 -55 -50 0 -50 0 0 55 0 55 50 0 50 0 0 -55z m510 0 l0 -55
-50 0 -50 0 0 55 0 55 50 0 50 0 0 -55z m-3660 9 c0 -32 -2 -35 -27 -32 -45 5
-43 68 2 68 22 0 25 -4 25 -36z m2390 -84 l0 -110 -30 0 -30 0 0 110 0 110 30
0 30 0 0 -110z m121 93 c0 -10 1 -58 1 -108 l1 -90 -32 -3 -31 -3 0 110 0 111
30 0 c22 0 30 -5 31 -17z m129 -93 l0 -110 -35 0 -35 0 0 110 0 110 35 0 35 0
0 -110z m1264 -31 c11 -56 9 -59 -34 -59 l-40 0 0 45 c0 44 0 45 34 45 30 0
34 -4 40 -31z m236 21 c0 -5 -4 -10 -10 -10 -15 0 -12 -57 3 -63 6 -3 -12 -6
-40 -6 l-53 -1 0 45 0 45 50 0 c28 0 50 -4 50 -10z m-2782 -57 c-16 -2 -40 -2
-55 0 -16 2 -3 4 27 4 30 0 43 -2 28 -4z m-498 -113 l0 -80 -74 0 -74 0 -4 76
c-2 42 -1 78 1 80 2 2 37 4 78 4 l73 0 0 -80z m1059 20 l2 -50 -56 0 -55 0 0
34 c0 58 7 66 59 66 l47 0 3 -50z m989 -57 c2 -7 -3 -13 -12 -13 -11 0 -16
-10 -16 -34 0 -29 -4 -34 -27 -39 -43 -8 -53 1 -53 47 0 24 3 46 7 50 12 11
96 2 101 -11z m-2358 -43 l0 -50 -49 0 -49 0 -4 50 -3 50 53 0 52 0 0 -50z
m3060 25 c0 -8 -7 -15 -15 -15 -16 0 -20 12 -8 23 11 12 23 8 23 -8z m-1480
-105 l0 -50 -50 0 -50 0 0 50 0 50 50 0 50 0 0 -50z m-490 -60 l0 -50 -50 0
-50 0 0 50 0 50 50 0 50 0 0 -50z m-822 -37 l3 -53 -55 0 -56 0 0 48 c0 27 3
52 7 56 4 4 28 6 53 4 l45 -3 3 -52z m1822 46 c0 -6 -7 -17 -15 -25 -8 -9 -13
-26 -11 -40 4 -22 2 -24 -35 -24 l-39 0 0 50 0 50 50 0 c29 0 50 -5 50 -11z
m-2130 -124 c0 -11 -11 -15 -40 -15 -29 0 -40 4 -40 15 0 11 11 15 40 15 29 0
40 -4 40 -15z m1960 -36 c0 -6 -6 -17 -14 -24 -14 -15 -10 -69 5 -59 5 3 9 1
9 -4 0 -12 -49 -12 -56 -1 -3 5 -14 9 -25 9 -16 0 -19 7 -19 45 l0 45 50 0
c29 0 50 -5 50 -11z m-2515 -49 l0 -45 -52 -3 -53 -3 0 51 0 51 53 -3 52 -3 0
-45z m2368 0 c9 0 17 -7 17 -15 0 -8 -7 -15 -15 -15 -10 0 -15 -11 -15 -35 0
-33 -2 -35 -34 -35 -34 0 -34 1 -38 50 -3 52 5 62 47 54 11 -2 28 -4 38 -4z
m-1853 -25 c0 -23 -3 -25 -50 -25 -47 0 -50 2 -50 25 0 23 3 25 50 25 47 0 50
-2 50 -25z m520 0 c0 -24 -3 -25 -55 -25 -52 0 -55 1 -55 25 0 24 3 25 55 25
52 0 55 -1 55 -25z m-330 -35 c0 -5 -4 -10 -10 -10 -5 0 -10 -18 -10 -40 l0
-40 -40 0 -40 0 0 50 0 50 50 0 c28 0 50 -4 50 -10z m-940 -20 c0 -5 -2 -10
-4 -10 -3 0 -8 5 -11 10 -3 6 -1 10 4 10 6 0 11 -4 11 -10z m570 -85 c0 -8 -4
-15 -10 -15 -5 0 -10 -16 -10 -35 0 -34 -1 -35 -40 -35 l-40 0 0 50 0 50 50 0
c38 0 50 -4 50 -15z m1150 -60 l0 -25 -130 0 -130 0 0 25 0 25 130 0 130 0 0
-25z m-510 -14 c0 -5 -7 -11 -15 -15 -9 -3 -15 -19 -15 -41 0 -36 -1 -36 -37
-33 -38 3 -38 3 -41 51 l-3 47 55 0 c31 0 56 -4 56 -9z"/>
<path d="M2625 4437 c-129 -43 -205 -123 -205 -217 0 -74 78 -163 174 -199
l57 -21 46 37 c122 100 228 245 247 339 7 30 5 32 -36 49 -56 24 -226 30 -283
12z"/>
<path d="M2934 4281 c-32 -49 -101 -132 -152 -185 -103 -108 -103 -113 4 -102
165 17 294 116 294 226 0 52 -53 150 -80 150 -4 0 -34 -40 -66 -89z m62 -178
c-4 -26 -36 -29 -36 -4 0 14 6 21 19 21 13 0 18 -6 17 -17z"/>
<path d="M3606 4429 c-151 -36 -250 -159 -217 -270 6 -21 15 -40 19 -43 5 -3
28 25 52 62 24 37 87 111 140 165 104 104 105 109 6 86z"/>
<path d="M3654 4240 c-93 -100 -169 -187 -169 -193 0 -21 115 -59 196 -64 255
-18 435 161 326 325 -28 43 -107 99 -154 108 -29 6 -38 -3 -199 -176z"/>
<path d="M3648 3252 c-63 -38 -73 -125 -19 -176 74 -71 191 -21 191 84 0 84
-100 137 -172 92z"/>
<path d="M1760 975 c0 -8 7 -15 15 -15 8 0 15 7 15 15 0 8 -7 15 -15 15 -8 0
-15 -7 -15 -15z"/>
<path d="M30 5629 l-35 -6 33 -2 c21 -1 32 -6 32 -16 0 -9 9 -15 25 -15 16 0
25 6 25 15 0 13 83 15 683 17 375 1 630 4 567 5 -255 6 -1297 8 -1330 2z"/>
<path d="M1702 5428 l3 -83 85 0 85 0 3 83 3 82 -91 0 -91 0 3 -82z"/>
<path d="M4520 5330 l0 -30 95 0 95 0 0 30 0 30 -95 0 -95 0 0 -30z"/>
<path d="M0 5130 l0 -80 65 0 65 0 0 80 0 80 -65 0 -65 0 0 -80z"/>
<path d="M4960 5115 l0 -65 315 0 316 0 -3 63 -3 62 -312 3 -313 2 0 -65z"/>
<path d="M1710 4985 c0 -21 5 -25 30 -25 25 0 30 4 30 25 0 21 -5 25 -30 25
-25 0 -30 -4 -30 -25z"/>
<path d="M1190 4540 l0 -100 105 0 105 0 0 100 0 100 -105 0 -105 0 0 -100z"/>
<path d="M5080 4365 c0 -34 1 -35 40 -35 39 0 40 1 40 35 0 34 -1 35 -40 35
-39 0 -40 -1 -40 -35z"/>
<path d="M680 4340 l0 -50 50 0 50 0 0 50 0 50 -50 0 -50 0 0 -50z"/>
<path d="M5660 4360 c0 -13 7 -20 20 -20 13 0 20 7 20 20 0 13 -7 20 -20 20
-13 0 -20 -7 -20 -20z"/>
<path d="M6093 4173 c64 -2 170 -2 235 0 64 1 11 3 -118 3 -129 0 -182 -2
-117 -3z"/>
<path d="M4972 4098 l3 -73 73 -3 72 -3 0 76 0 75 -75 0 -76 0 3 -72z"/>
<path d="M0 4020 l0 -81 53 3 52 3 0 75 0 75 -52 3 -53 3 0 -81z"/>
<path d="M5310 3820 l0 -50 145 0 145 0 0 50 0 50 -145 0 -145 0 0 -50z"/>
<path d="M4568 3813 c6 -2 18 -2 25 0 6 3 1 5 -13 5 -14 0 -19 -2 -12 -5z"/>
<path d="M1680 3720 c0 -13 5 -20 13 -17 6 2 12 10 12 17 0 7 -6 15 -12 18 -8
2 -13 -5 -13 -18z"/>
<path d="M4833 3723 c148 -2 386 -2 530 0 144 1 24 2 -268 2 -291 0 -409 -1
-262 -2z"/>
<path d="M1280 3405 l0 -185 190 0 190 0 0 185 0 185 -190 0 -190 0 0 -185z"/>
<path d="M5050 3555 c0 -21 5 -25 30 -25 25 0 30 4 30 25 0 21 -5 25 -30 25
-25 0 -30 -4 -30 -25z"/>
<path d="M4820 3255 l0 -95 100 0 100 0 0 95 0 95 -100 0 -100 0 0 -95z"/>
<path d="M127 3244 c-4 -4 -7 -49 -7 -101 l0 -93 100 0 101 0 -3 98 -3 97 -90
3 c-50 1 -94 0 -98 -4z"/>
<path d="M2010 2760 l0 -100 105 0 105 0 0 100 0 100 -105 0 -105 0 0 -100z"/>
<path d="M7 2353 c7 -2 19 -2 26 0 6 3 1 5 -13 5 -14 0 -19 -2 -13 -5z"/>
<path d="M810 2232 c0 -22 5 -28 25 -30 22 -1 25 2 25 28 0 25 -4 30 -25 30
-21 0 -25 -5 -25 -28z"/>
<path d="M390 2225 c0 -8 7 -15 15 -15 8 0 15 7 15 15 0 8 -7 15 -15 15 -8 0
-15 -7 -15 -15z"/>
<path d="M170 1870 l0 -40 40 0 c22 0 41 3 41 8 11 74 12 72 -36 72 l-45 0 0
-40z"/>
<path d="M5670 1820 l0 -50 45 0 45 0 0 50 0 50 -45 0 -45 0 0 -50z"/>
<path d="M4502 1288 l3 -53 50 1 50 1 3 52 3 51 -56 0 -56 0 3 -52z"/>
<path d="M4138 1253 c7 -3 16 -2 19 1 4 3 -2 6 -13 5 -11 0 -14 -3 -6 -6z"/>
<path d="M4810 1200 l0 -50 49 0 49 0 4 46 c2 25 1 47 -1 50 -2 2 -26 4 -53 4
l-48 0 0 -50z"/>
<path d="M3910 1120 l0 -50 55 0 55 0 0 50 0 50 -55 0 -55 0 0 -50z"/>
<path d="M5070 965 l0 -115 310 0 310 0 0 115 0 115 -310 0 -310 0 0 -115z"/>
<path d="M4300 960 l0 -50 50 0 50 0 0 50 0 50 -50 0 -50 0 0 -50z"/>
<path d="M3040 920 c0 -11 -7 -20 -15 -20 -10 0 -15 -10 -15 -30 0 -25 4 -30
25 -30 14 0 25 -4 25 -10 0 -5 23 -10 50 -10 l50 0 0 54 0 53 -37 7 c-67 11
-83 8 -83 -14z"/>
<path d="M3930 860 l0 -50 50 0 50 0 0 50 0 50 -50 0 -50 0 0 -50z"/>
<path d="M6397 793 c-4 -3 -7 -15 -7 -25 0 -13 7 -18 25 -18 20 0 25 5 25 25
0 18 -5 25 -18 25 -10 0 -22 -3 -25 -7z"/>
<path d="M3257 783 c-4 -3 -7 -28 -7 -55 l0 -48 55 0 55 0 0 55 0 55 -48 0
c-27 0 -52 -3 -55 -7z"/>
<path d="M3600 750 c0 -16 -4 -30 -10 -30 -19 0 -10 -29 11 -35 33 -11 210 6
206 19 -2 6 -17 12 -33 12 -16 1 -37 2 -46 3 -13 1 -18 10 -18 31 0 30 -1 30
-55 30 -54 0 -55 0 -55 -30z"/>
<path d="M3100 640 l0 -50 50 0 50 0 0 50 0 50 -50 0 -50 0 0 -50z"/>
<path d="M3940 605 l0 -85 180 0 180 0 0 85 0 85 -180 0 -180 0 0 -85z"/>
<path d="M1743 673 c-7 -2 -13 -13 -13 -24 0 -14 9 -21 30 -25 28 -6 30 -10
30 -50 0 -40 2 -44 24 -44 14 0 28 -4 31 -10 3 -5 31 -10 61 -10 l54 0 0 45 0
45 85 0 c50 0 85 4 85 10 0 6 -18 10 -40 10 -38 0 -40 2 -40 30 l0 30 -65 0
-65 0 0 -30 c0 -28 -2 -30 -39 -30 -29 0 -41 -5 -44 -17 -3 -10 -2 3 0 30 l6
47 -44 -1 c-24 0 -50 -3 -56 -6z"/>
<path d="M2880 630 l0 -50 55 0 55 0 0 50 0 50 -55 0 -55 0 0 -50z"/>
<path d="M200 555 c0 -35 1 -36 33 -33 28 3 32 6 32 33 0 27 -4 30 -32 33 -32
3 -33 2 -33 -33z"/>
<path d="M2140 540 l0 -50 50 0 50 0 0 50 0 50 -50 0 -50 0 0 -50z"/>
<path d="M3270 475 l0 -55 50 0 50 0 0 55 0 55 -50 0 -50 0 0 -55z"/>
<path d="M1770 440 l0 -50 50 0 50 0 0 50 0 50 -50 0 -50 0 0 -50z"/>
<path d="M2734 447 c-3 -8 -4 -32 -2 -53 l3 -39 53 -3 53 -3 -3 53 -3 53 -48
3 c-34 2 -49 -1 -53 -11z"/>
<path d="M2408 360 l4 -50 49 0 49 0 0 50 0 50 -52 0 -53 0 3 -50z"/>
<path d="M550 334 l0 -55 53 3 52 3 3 53 3 52 -55 0 -56 0 0 -56z"/>
<path d="M2060 200 l0 -50 50 0 50 0 0 50 0 50 -50 0 -50 0 0 -50z"/>
<path d="M370 140 l0 -80 80 0 80 0 0 80 0 80 -80 0 -80 0 0 -80z"/>
</g>
</svg>
